<?xml version="1.0" encoding="UTF-8" standalone="yes"?>
<!DOCTYPE svg PUBLIC "-//W3C//DTD SVG 1.0//EN" "http://www.w3.org/TR/2001/REC-SVG-20010904/DTD/svg10.dtd">
<svg height="100" width="1200" xmlns="http://www.w3.org/2000/svg" xmlns:svg="http://www.w3.org/2000/svg" xmlns:xlink="http://www.w3.org/1999/xlink">
	<line class="edge" style="stroke: rgba(0,0,0,0.1); stroke-width: 1" x1="430.927247510506" x2="488.048439846074" y1="62.5" y2="25" />
	<line class="edge" style="stroke: rgba(0,0,0,0.1); stroke-width: 1" x1="488.048439846074" x2="719.250159105263" y1="25" y2="50" />
	<line class="edge" style="stroke: rgba(0,0,0,0.1); stroke-width: 1" x1="488.048439846074" x2="579.736761495507" y1="25" y2="0" />
	<line class="edge" style="stroke: rgba(0,0,0,0.1); stroke-width: 1" x1="430.927247510506" x2="448.621791619922" y1="62.5" y2="100" />
	<line class="edge" style="stroke: rgba(0,0,0,0.1); stroke-width: 1" x1="445.813383483247" x2="561.556382002148" y1="62.5" y2="100" />
	<line class="edge" style="stroke: rgba(0,0,0,0.1); stroke-width: 1" x1="445.813383483247" x2="582.924983385575" y1="62.5" y2="25" />
	<line class="edge" style="stroke: rgba(0,0,0,0.1); stroke-width: 1" x1="582.924983385575" x2="587.432067756754" y1="25" y2="50" />
	<line class="edge" style="stroke: rgba(0,0,0,0.1); stroke-width: 1" x1="582.924983385575" x2="598.619679925358" y1="25" y2="0" />
	<line class="edge" style="stroke: rgba(0,0,0,0.1); stroke-width: 1" x1="463.753757966792" x2="616.655590383683" y1="62.5" y2="25" />
	<line class="edge" style="stroke: rgba(0,0,0,0.1); stroke-width: 1" x1="616.655590383683" x2="624.379440930078" y1="25" y2="50" />
	<line class="edge" style="stroke: rgba(0,0,0,0.1); stroke-width: 1" x1="616.655590383683" x2="623.581366018805" y1="25" y2="0" />
	<line class="edge" style="stroke: rgba(0,0,0,0.1); stroke-width: 1" x1="463.753757966792" x2="499.649070344672" y1="62.5" y2="100" />
	<line class="edge" style="stroke: rgba(0,0,0,0.1); stroke-width: 1" x1="464.163863614629" x2="564.703243805575" y1="62.5" y2="25" />
	<line class="edge" style="stroke: rgba(0,0,0,0.1); stroke-width: 1" x1="564.703243805575" x2="568.891098212244" y1="25" y2="50" />
	<line class="edge" style="stroke: rgba(0,0,0,0.1); stroke-width: 1" x1="564.703243805575" x2="566.919212391327" y1="25" y2="0" />
	<line class="edge" style="stroke: rgba(0,0,0,0.1); stroke-width: 1" x1="464.163863614629" x2="611.799566689984" y1="62.5" y2="100" />
	<line class="edge" style="stroke: rgba(0,0,0,0.1); stroke-width: 1" x1="484.283506888736" x2="528.281318493541" y1="62.5" y2="25" />
	<line class="edge" style="stroke: rgba(0,0,0,0.1); stroke-width: 1" x1="528.281318493541" x2="548.753978845189" y1="25" y2="50" />
	<line class="edge" style="stroke: rgba(0,0,0,0.1); stroke-width: 1" x1="528.281318493541" x2="609.773504980929" y1="25" y2="0" />
	<line class="edge" style="stroke: rgba(0,0,0,0.1); stroke-width: 1" x1="484.283506888736" x2="589.082393467436" y1="62.5" y2="100" />
	<line class="edge" style="stroke: rgba(0,0,0,0.1); stroke-width: 1" x1="485.937327818008" x2="589.5944429908" y1="62.5" y2="100" />
	<line class="edge" style="stroke: rgba(0,0,0,0.1); stroke-width: 1" x1="485.937327818008" x2="488.417185407268" y1="62.5" y2="25" />
	<line class="edge" style="stroke: rgba(0,0,0,0.1); stroke-width: 1" x1="488.417185407268" x2="539.601748968546" y1="25" y2="50" />
	<line class="edge" style="stroke: rgba(0,0,0,0.1); stroke-width: 1" x1="488.417185407268" x2="618.413685334208" y1="25" y2="0" />
	<line class="edge" style="stroke: rgba(0,0,0,0.1); stroke-width: 1" x1="507.652538378228" x2="516.34514701035" y1="62.5" y2="25" />
	<line class="edge" style="stroke: rgba(0,0,0,0.1); stroke-width: 1" x1="516.34514701035" x2="658.544620106148" y1="25" y2="50" />
	<line class="edge" style="stroke: rgba(0,0,0,0.1); stroke-width: 1" x1="516.34514701035" x2="556.999199497854" y1="25" y2="0" />
	<line class="edge" style="stroke: rgba(0,0,0,0.1); stroke-width: 1" x1="507.652538378228" x2="532.065475153122" y1="62.5" y2="100" />
	<line class="edge" style="stroke: rgba(0,0,0,0.1); stroke-width: 1" x1="515.894846348734" x2="554.550798875899" y1="62.5" y2="100" />
	<line class="edge" style="stroke: rgba(0,0,0,0.1); stroke-width: 1" x1="515.894846348734" x2="577.012238604981" y1="62.5" y2="25" />
	<line class="edge" style="stroke: rgba(0,0,0,0.1); stroke-width: 1" x1="577.012238604981" x2="593.037233301472" y1="25" y2="50" />
	<line class="edge" style="stroke: rgba(0,0,0,0.1); stroke-width: 1" x1="577.012238604981" x2="600.020680043321" y1="25" y2="0" />
	<line class="edge" style="stroke: rgba(0,0,0,0.1); stroke-width: 1" x1="518.572766324734" x2="554.553711558057" y1="62.5" y2="100" />
	<line class="edge" style="stroke: rgba(0,0,0,0.1); stroke-width: 1" x1="518.572766324734" x2="585.764265953124" y1="62.5" y2="25" />
	<line class="edge" style="stroke: rgba(0,0,0,0.1); stroke-width: 1" x1="585.764265953124" x2="597.538492308335" y1="25" y2="50" />
	<line class="edge" style="stroke: rgba(0,0,0,0.1); stroke-width: 1" x1="585.764265953124" x2="595.516508354301" y1="25" y2="0" />
	<line class="edge" style="stroke: rgba(0,0,0,0.1); stroke-width: 1" x1="534.952525708061" x2="535.302630103444" y1="62.5" y2="100" />
	<line class="edge" style="stroke: rgba(0,0,0,0.1); stroke-width: 1" x1="534.952525708061" x2="567.061933817065" y1="62.5" y2="25" />
	<line class="edge" style="stroke: rgba(0,0,0,0.1); stroke-width: 1" x1="567.061933817065" x2="613.953203877557" y1="25" y2="50" />
	<line class="edge" style="stroke: rgba(0,0,0,0.1); stroke-width: 1" x1="567.061933817065" x2="598.354043312555" y1="25" y2="0" />
	<line class="edge" style="stroke: rgba(0,0,0,0.1); stroke-width: 1" x1="546.084796915664" x2="564.012938134145" y1="62.5" y2="100" />
	<line class="edge" style="stroke: rgba(0,0,0,0.1); stroke-width: 1" x1="546.084796915664" x2="553.132322664988" y1="62.5" y2="25" />
	<line class="edge" style="stroke: rgba(0,0,0,0.1); stroke-width: 1" x1="553.132322664988" x2="623.238834597033" y1="25" y2="50" />
	<line class="edge" style="stroke: rgba(0,0,0,0.1); stroke-width: 1" x1="553.132322664988" x2="560.358104562377" y1="25" y2="0" />
	<line class="edge" style="stroke: rgba(0,0,0,0.1); stroke-width: 1" x1="547.052972464959" x2="547.189868526382" y1="62.5" y2="25" />
	<line class="edge" style="stroke: rgba(0,0,0,0.1); stroke-width: 1" x1="547.189868526382" x2="547.326764587804" y1="25" y2="50" />
	<line class="edge" style="stroke: rgba(0,0,0,0.1); stroke-width: 1" x1="547.189868526382" x2="547.33608517071" y1="25" y2="0" />
	<line class="edge" style="stroke: rgba(0,0,0,0.1); stroke-width: 1" x1="547.052972464959" x2="652.947027535041" y1="62.5" y2="100" />
	<line class="edge" style="stroke: rgba(0,0,0,0.1); stroke-width: 1" x1="550.509743649989" x2="587.056331758381" y1="62.5" y2="25" />
	<line class="edge" style="stroke: rgba(0,0,0,0.1); stroke-width: 1" x1="587.056331758381" x2="592.702857389742" y1="25" y2="50" />
	<line class="edge" style="stroke: rgba(0,0,0,0.1); stroke-width: 1" x1="587.056331758381" x2="587.187402455488" y1="25" y2="0" />
	<line class="edge" style="stroke: rgba(0,0,0,0.1); stroke-width: 1" x1="550.509743649989" x2="567.720199984757" y1="62.5" y2="100" />
	<line class="edge" style="stroke: rgba(0,0,0,0.1); stroke-width: 1" x1="553.928067430534" x2="583.181881951905" y1="62.5" y2="25" />
	<line class="edge" style="stroke: rgba(0,0,0,0.1); stroke-width: 1" x1="583.181881951905" x2="595.68893913805" y1="25" y2="50" />
	<line class="edge" style="stroke: rgba(0,0,0,0.1); stroke-width: 1" x1="583.181881951905" x2="597.682961343368" y1="25" y2="0" />
	<line class="edge" style="stroke: rgba(0,0,0,0.1); stroke-width: 1" x1="553.928067430534" x2="554.237976812137" y1="62.5" y2="100" />
	<line class="edge" style="stroke: rgba(0,0,0,0.1); stroke-width: 1" x1="557.444257331585" x2="560.823551171214" y1="62.5" y2="25" />
	<line class="edge" style="stroke: rgba(0,0,0,0.1); stroke-width: 1" x1="560.823551171214" x2="570.163357778827" y1="25" y2="50" />
	<line class="edge" style="stroke: rgba(0,0,0,0.1); stroke-width: 1" x1="560.823551171214" x2="607.591906044641" y1="25" y2="0" />
	<line class="edge" style="stroke: rgba(0,0,0,0.1); stroke-width: 1" x1="557.444257331585" x2="569.854030933655" y1="62.5" y2="100" />
	<line class="edge" style="stroke: rgba(0,0,0,0.1); stroke-width: 1" x1="558.803314826474" x2="575.245988144413" y1="62.5" y2="100" />
	<line class="edge" style="stroke: rgba(0,0,0,0.1); stroke-width: 1" x1="558.803314826474" x2="575.112004765148" y1="62.5" y2="25" />
	<line class="edge" style="stroke: rgba(0,0,0,0.1); stroke-width: 1" x1="575.112004765148" x2="586.036310466675" y1="25" y2="50" />
	<line class="edge" style="stroke: rgba(0,0,0,0.1); stroke-width: 1" x1="575.112004765148" x2="586.326996146036" y1="25" y2="0" />
	<line class="edge" style="stroke: rgba(0,0,0,0.1); stroke-width: 1" x1="559.472066649935" x2="569.100811327615" y1="62.5" y2="25" />
	<line class="edge" style="stroke: rgba(0,0,0,0.1); stroke-width: 1" x1="569.100811327615" x2="582.788087324153" y1="25" y2="50" />
	<line class="edge" style="stroke: rgba(0,0,0,0.1); stroke-width: 1" x1="569.100811327615" x2="585.812033940514" y1="25" y2="0" />
	<line class="edge" style="stroke: rgba(0,0,0,0.1); stroke-width: 1" x1="559.472066649935" x2="579.008590956025" y1="62.5" y2="100" />
	<line class="edge" style="stroke: rgba(0,0,0,0.1); stroke-width: 1" x1="559.885667516361" x2="575.701531633913" y1="62.5" y2="100" />
	<line class="edge" style="stroke: rgba(0,0,0,0.1); stroke-width: 1" x1="559.885667516361" x2="571.012113359648" y1="62.5" y2="25" />
	<line class="edge" style="stroke: rgba(0,0,0,0.1); stroke-width: 1" x1="571.012113359648" x2="581.563013208528" y1="25" y2="50" />
	<line class="edge" style="stroke: rgba(0,0,0,0.1); stroke-width: 1" x1="571.012113359648" x2="590.344749914683" y1="25" y2="0" />
	<line class="edge" style="stroke: rgba(0,0,0,0.1); stroke-width: 1" x1="560.838697118435" x2="577.266224489152" y1="62.5" y2="100" />
	<line class="edge" style="stroke: rgba(0,0,0,0.1); stroke-width: 1" x1="560.838697118435" x2="582.3610881198" y1="62.5" y2="25" />
	<line class="edge" style="stroke: rgba(0,0,0,0.1); stroke-width: 1" x1="582.3610881198" x2="582.615074003972" y1="25" y2="50" />
	<line class="edge" style="stroke: rgba(0,0,0,0.1); stroke-width: 1" x1="582.3610881198" x2="587.727996264" y1="25" y2="0" />
	<line class="edge" style="stroke: rgba(0,0,0,0.1); stroke-width: 1" x1="560.898115834457" x2="605.673613575429" y1="62.5" y2="100" />
	<line class="edge" style="stroke: rgba(0,0,0,0.1); stroke-width: 1" x1="560.898115834457" x2="563.924975132976" y1="62.5" y2="25" />
	<line class="edge" style="stroke: rgba(0,0,0,0.1); stroke-width: 1" x1="563.924975132976" x2="575.534343678048" y1="25" y2="50" />
	<line class="edge" style="stroke: rgba(0,0,0,0.1); stroke-width: 1" x1="563.924975132976" x2="566.400754967215" y1="25" y2="0" />
	<line class="edge" style="stroke: rgba(0,0,0,0.1); stroke-width: 1" x1="563.211950540715" x2="563.479917299244" y1="62.5" y2="25" />
	<line class="edge" style="stroke: rgba(0,0,0,0.1); stroke-width: 1" x1="563.479917299244" x2="577.829537218495" y1="25" y2="50" />
	<line class="edge" style="stroke: rgba(0,0,0,0.1); stroke-width: 1" x1="563.479917299244" x2="577.848760920738" y1="25" y2="0" />
	<line class="edge" style="stroke: rgba(0,0,0,0.1); stroke-width: 1" x1="563.211950540715" x2="591.929831545027" y1="62.5" y2="100" />
	<line class="edge" style="stroke: rgba(0,0,0,0.1); stroke-width: 1" x1="563.446712722644" x2="567.725442812641" y1="62.5" y2="25" />
	<line class="edge" style="stroke: rgba(0,0,0,0.1); stroke-width: 1" x1="567.725442812641" x2="587.351677729195" y1="25" y2="50" />
	<line class="edge" style="stroke: rgba(0,0,0,0.1); stroke-width: 1" x1="567.725442812641" x2="591.963618658059" y1="25" y2="0" />
	<line class="edge" style="stroke: rgba(0,0,0,0.1); stroke-width: 1" x1="563.446712722644" x2="568.2945809063" y1="62.5" y2="100" />
	<line class="edge" style="stroke: rgba(0,0,0,0.1); stroke-width: 1" x1="563.547491525308" x2="574.390242126413" y1="62.5" y2="100" />
	<line class="edge" style="stroke: rgba(0,0,0,0.1); stroke-width: 1" x1="563.547491525308" x2="563.899926066418" y1="62.5" y2="25" />
	<line class="edge" style="stroke: rgba(0,0,0,0.1); stroke-width: 1" x1="563.899926066418" x2="580.229587316628" y1="25" y2="50" />
	<line class="edge" style="stroke: rgba(0,0,0,0.1); stroke-width: 1" x1="563.899926066418" x2="592.989465314082" y1="25" y2="0" />
	<line class="edge" style="stroke: rgba(0,0,0,0.1); stroke-width: 1" x1="564.118377228262" x2="581.472137525201" y1="62.5" y2="100" />
	<line class="edge" style="stroke: rgba(0,0,0,0.1); stroke-width: 1" x1="564.118377228262" x2="564.446927775677" y1="62.5" y2="25" />
	<line class="edge" style="stroke: rgba(0,0,0,0.1); stroke-width: 1" x1="564.446927775677" x2="581.800688072615" y1="25" y2="50" />
	<line class="edge" style="stroke: rgba(0,0,0,0.1); stroke-width: 1" x1="564.446927775677" x2="584.336469159308" y1="25" y2="0" />
	<line class="edge" style="stroke: rgba(0,0,0,0.1); stroke-width: 1" x1="564.154494487021" x2="564.477802206551" y1="62.5" y2="25" />
	<line class="edge" style="stroke: rgba(0,0,0,0.1); stroke-width: 1" x1="564.477802206551" x2="580.418911656894" y1="25" y2="50" />
	<line class="edge" style="stroke: rgba(0,0,0,0.1); stroke-width: 1" x1="564.477802206551" x2="587.074972924192" y1="25" y2="0" />
	<line class="edge" style="stroke: rgba(0,0,0,0.1); stroke-width: 1" x1="564.154494487021" x2="580.116575248901" y1="62.5" y2="100" />
	<line class="edge" style="stroke: rgba(0,0,0,0.1); stroke-width: 1" x1="564.732370627154" x2="574.124022977178" y1="62.5" y2="25" />
	<line class="edge" style="stroke: rgba(0,0,0,0.1); stroke-width: 1" x1="574.124022977178" x2="592.443628677686" y1="25" y2="50" />
	<line class="edge" style="stroke: rgba(0,0,0,0.1); stroke-width: 1" x1="574.124022977178" x2="581.860689325068" y1="25" y2="0" />
	<line class="edge" style="stroke: rgba(0,0,0,0.1); stroke-width: 1" x1="564.732370627154" x2="573.304976754369" y1="62.5" y2="100" />
	<line class="edge" style="stroke: rgba(0,0,0,0.1); stroke-width: 1" x1="565.769868011808" x2="565.980746200042" y1="62.5" y2="100" />
	<line class="edge" style="stroke: rgba(0,0,0,0.1); stroke-width: 1" x1="565.769868011808" x2="574.989089578083" y1="62.5" y2="25" />
	<line class="edge" style="stroke: rgba(0,0,0,0.1); stroke-width: 1" x1="574.989089578083" x2="600.004951559668" y1="25" y2="50" />
	<line class="edge" style="stroke: rgba(0,0,0,0.1); stroke-width: 1" x1="574.989089578083" x2="581.62243192455" y1="25" y2="0" />
	<line class="edge" style="stroke: rgba(0,0,0,0.1); stroke-width: 1" x1="565.842102529325" x2="566.058223545443" y1="62.5" y2="25" />
	<line class="edge" style="stroke: rgba(0,0,0,0.1); stroke-width: 1" x1="566.058223545443" x2="581.351552483863" y1="25" y2="50" />
	<line class="edge" style="stroke: rgba(0,0,0,0.1); stroke-width: 1" x1="566.058223545443" x2="589.106277461132" y1="25" y2="0" />
	<line class="edge" style="stroke: rgba(0,0,0,0.1); stroke-width: 1" x1="565.842102529325" x2="577.149717202835" y1="62.5" y2="100" />
	<line class="edge" style="stroke: rgba(0,0,0,0.1); stroke-width: 1" x1="566.49803855129" x2="566.766005309819" y1="62.5" y2="25" />
	<line class="edge" style="stroke: rgba(0,0,0,0.1); stroke-width: 1" x1="566.766005309819" x2="576.117462646065" y1="25" y2="50" />
	<line class="edge" style="stroke: rgba(0,0,0,0.1); stroke-width: 1" x1="566.766005309819" x2="595.470487976205" y1="25" y2="0" />
	<line class="edge" style="stroke: rgba(0,0,0,0.1); stroke-width: 1" x1="566.49803855129" x2="576.021344134853" y1="62.5" y2="100" />
	<line class="edge" style="stroke: rgba(0,0,0,0.1); stroke-width: 1" x1="566.732800733219" x2="584.137241699705" y1="62.5" y2="25" />
	<line class="edge" style="stroke: rgba(0,0,0,0.1); stroke-width: 1" x1="584.137241699705" x2="584.47336522073" y1="25" y2="50" />
	<line class="edge" style="stroke: rgba(0,0,0,0.1); stroke-width: 1" x1="584.137241699705" x2="596.068170355012" y1="25" y2="0" />
	<line class="edge" style="stroke: rgba(0,0,0,0.1); stroke-width: 1" x1="566.732800733219" x2="567.068924254244" y1="62.5" y2="100" />
	<line class="edge" style="stroke: rgba(0,0,0,0.1); stroke-width: 1" x1="567.033389531917" x2="578.602563063209" y1="62.5" y2="100" />
	<line class="edge" style="stroke: rgba(0,0,0,0.1); stroke-width: 1" x1="567.033389531917" x2="567.381746318006" y1="62.5" y2="25" />
	<line class="edge" style="stroke: rgba(0,0,0,0.1); stroke-width: 1" x1="567.381746318006" x2="584.526376036005" y1="25" y2="50" />
	<line class="edge" style="stroke: rgba(0,0,0,0.1); stroke-width: 1" x1="567.381746318006" x2="584.480355657909" y1="25" y2="0" />
	<line class="edge" style="stroke: rgba(0,0,0,0.1); stroke-width: 1" x1="567.558254856776" x2="575.618228924196" y1="62.5" y2="100" />
	<line class="edge" style="stroke: rgba(0,0,0,0.1); stroke-width: 1" x1="567.558254856776" x2="579.947639683741" y1="62.5" y2="25" />
	<line class="edge" style="stroke: rgba(0,0,0,0.1); stroke-width: 1" x1="579.947639683741" x2="586.858269371642" y1="25" y2="50" />
	<line class="edge" style="stroke: rgba(0,0,0,0.1); stroke-width: 1" x1="579.947639683741" x2="585.133378997717" y1="25" y2="0" />
	<line class="edge" style="stroke: rgba(0,0,0,0.1); stroke-width: 1" x1="567.716122229736" x2="568.010303127687" y1="62.5" y2="25" />
	<line class="edge" style="stroke: rgba(0,0,0,0.1); stroke-width: 1" x1="568.010303127687" x2="582.634297706214" y1="25" y2="50" />
	<line class="edge" style="stroke: rgba(0,0,0,0.1); stroke-width: 1" x1="568.010303127687" x2="582.634297706214" y1="25" y2="0" />
	<line class="edge" style="stroke: rgba(0,0,0,0.1); stroke-width: 1" x1="567.716122229736" x2="582.340116808263" y1="62.5" y2="100" />
	<line class="edge" style="stroke: rgba(0,0,0,0.1); stroke-width: 1" x1="568.000982544781" x2="572.82030644329" y1="62.5" y2="25" />
	<line class="edge" style="stroke: rgba(0,0,0,0.1); stroke-width: 1" x1="572.82030644329" x2="582.497984181223" y1="25" y2="50" />
	<line class="edge" style="stroke: rgba(0,0,0,0.1); stroke-width: 1" x1="572.82030644329" x2="582.517207883465" y1="25" y2="0" />
	<line class="edge" style="stroke: rgba(0,0,0,0.1); stroke-width: 1" x1="568.000982544781" x2="582.595267765298" y1="62.5" y2="100" />
	<line class="edge" style="stroke: rgba(0,0,0,0.1); stroke-width: 1" x1="568.09593598313" x2="590.000470883616" y1="62.5" y2="100" />
	<line class="edge" style="stroke: rgba(0,0,0,0.1); stroke-width: 1" x1="568.09593598313" x2="568.405845364733" y1="62.5" y2="25" />
	<line class="edge" style="stroke: rgba(0,0,0,0.1); stroke-width: 1" x1="568.405845364733" x2="576.171638534202" y1="25" y2="50" />
	<line class="edge" style="stroke: rgba(0,0,0,0.1); stroke-width: 1" x1="568.405845364733" x2="581.437767875737" y1="25" y2="0" />
	<line class="edge" style="stroke: rgba(0,0,0,0.1); stroke-width: 1" x1="569.438682457935" x2="569.900051311751" y1="62.5" y2="25" />
	<line class="edge" style="stroke: rgba(0,0,0,0.1); stroke-width: 1" x1="569.900051311751" x2="600.270588172472" y1="25" y2="50" />
	<line class="edge" style="stroke: rgba(0,0,0,0.1); stroke-width: 1" x1="569.900051311751" x2="570.331128271124" y1="25" y2="0" />
	<line class="edge" style="stroke: rgba(0,0,0,0.1); stroke-width: 1" x1="569.438682457935" x2="577.008160849959" y1="62.5" y2="100" />
	<line class="edge" style="stroke: rgba(0,0,0,0.1); stroke-width: 1" x1="570.330545734692" x2="578.787227112022" y1="62.5" y2="100" />
	<line class="edge" style="stroke: rgba(0,0,0,0.1); stroke-width: 1" x1="570.330545734692" x2="578.636932712673" y1="62.5" y2="25" />
	<line class="edge" style="stroke: rgba(0,0,0,0.1); stroke-width: 1" x1="578.636932712673" x2="590.05348169889" y1="25" y2="50" />
	<line class="edge" style="stroke: rgba(0,0,0,0.1); stroke-width: 1" x1="578.636932712673" x2="578.768585946211" y1="25" y2="0" />
	<line class="edge" style="stroke: rgba(0,0,0,0.1); stroke-width: 1" x1="571.469986994874" x2="579.59112738761" y1="62.5" y2="100" />
	<line class="edge" style="stroke: rgba(0,0,0,0.1); stroke-width: 1" x1="571.469986994874" x2="574.298783906654" y1="62.5" y2="25" />
	<line class="edge" style="stroke: rgba(0,0,0,0.1); stroke-width: 1" x1="574.298783906654" x2="585.867374901515" y1="25" y2="50" />
	<line class="edge" style="stroke: rgba(0,0,0,0.1); stroke-width: 1" x1="574.298783906654" x2="582.150209931566" y1="25" y2="0" />
	<line class="edge" style="stroke: rgba(0,0,0,0.1); stroke-width: 1" x1="572.360685198769" x2="582.576626599487" y1="62.5" y2="100" />
	<line class="edge" style="stroke: rgba(0,0,0,0.1); stroke-width: 1" x1="572.360685198769" x2="577.403703087006" y1="62.5" y2="25" />
	<line class="edge" style="stroke: rgba(0,0,0,0.1); stroke-width: 1" x1="577.403703087006" x2="582.524780857076" y1="25" y2="50" />
	<line class="edge" style="stroke: rgba(0,0,0,0.1); stroke-width: 1" x1="577.403703087006" x2="582.507304764128" y1="25" y2="0" />
	<line class="edge" style="stroke: rgba(0,0,0,0.1); stroke-width: 1" x1="572.530785836792" x2="572.718945104194" y1="62.5" y2="25" />
	<line class="edge" style="stroke: rgba(0,0,0,0.1); stroke-width: 1" x1="572.718945104194" x2="584.129668726095" y1="25" y2="50" />
	<line class="edge" style="stroke: rgba(0,0,0,0.1); stroke-width: 1" x1="572.718945104194" x2="586.426027339406" y1="25" y2="0" />
	<line class="edge" style="stroke: rgba(0,0,0,0.1); stroke-width: 1" x1="572.530785836792" x2="577.05243361876" y1="62.5" y2="100" />
	<line class="edge" style="stroke: rgba(0,0,0,0.1); stroke-width: 1" x1="572.664186679625" x2="575.206958203496" y1="62.5" y2="25" />
	<line class="edge" style="stroke: rgba(0,0,0,0.1); stroke-width: 1" x1="575.206958203496" x2="583.195280289831" y1="25" y2="50" />
	<line class="edge" style="stroke: rgba(0,0,0,0.1); stroke-width: 1" x1="575.206958203496" x2="589.122005944784" y1="25" y2="0" />
	<line class="edge" style="stroke: rgba(0,0,0,0.1); stroke-width: 1" x1="572.664186679625" x2="575.292591058939" y1="62.5" y2="100" />
	<line class="edge" style="stroke: rgba(0,0,0,0.1); stroke-width: 1" x1="573.284587979264" x2="581.285143330662" y1="62.5" y2="100" />
	<line class="edge" style="stroke: rgba(0,0,0,0.1); stroke-width: 1" x1="573.284587979264" x2="576.105229381002" y1="62.5" y2="25" />
	<line class="edge" style="stroke: rgba(0,0,0,0.1); stroke-width: 1" x1="576.105229381002" x2="581.737774138004" y1="25" y2="50" />
	<line class="edge" style="stroke: rgba(0,0,0,0.1); stroke-width: 1" x1="576.105229381002" x2="584.586377288458" y1="25" y2="0" />
	<line class="edge" style="stroke: rgba(0,0,0,0.1); stroke-width: 1" x1="573.508864505424" x2="573.6614890505" y1="62.5" y2="25" />
	<line class="edge" style="stroke: rgba(0,0,0,0.1); stroke-width: 1" x1="573.6614890505" x2="573.835667443544" y1="25" y2="50" />
	<line class="edge" style="stroke: rgba(0,0,0,0.1); stroke-width: 1" x1="573.6614890505" x2="578.315372602438" y1="25" y2="0" />
	<line class="edge" style="stroke: rgba(0,0,0,0.1); stroke-width: 1" x1="573.508864505424" x2="595.458837247574" y1="62.5" y2="100" />
	<line class="edge" style="stroke: rgba(0,0,0,0.1); stroke-width: 1" x1="574.022661638083" x2="582.433905173749" y1="62.5" y2="100" />
	<line class="edge" style="stroke: rgba(0,0,0,0.1); stroke-width: 1" x1="574.022661638083" x2="574.153149798758" y1="62.5" y2="25" />
	<line class="edge" style="stroke: rgba(0,0,0,0.1); stroke-width: 1" x1="574.153149798758" x2="582.583034500235" y1="25" y2="50" />
	<line class="edge" style="stroke: rgba(0,0,0,0.1); stroke-width: 1" x1="574.153149798758" x2="582.59235508314" y1="25" y2="0" />
	<line class="edge" style="stroke: rgba(0,0,0,0.1); stroke-width: 1" x1="574.049458313936" x2="574.188101984653" y1="62.5" y2="25" />
	<line class="edge" style="stroke: rgba(0,0,0,0.1); stroke-width: 1" x1="574.188101984653" x2="582.57021869874" y1="25" y2="50" />
	<line class="edge" style="stroke: rgba(0,0,0,0.1); stroke-width: 1" x1="574.188101984653" x2="582.626142196172" y1="25" y2="0" />
	<line class="edge" style="stroke: rgba(0,0,0,0.1); stroke-width: 1" x1="574.049458313936" x2="582.412933862212" y1="62.5" y2="100" />
	<line class="edge" style="stroke: rgba(0,0,0,0.1); stroke-width: 1" x1="574.324998046076" x2="580.106089593132" y1="62.5" y2="100" />
	<line class="edge" style="stroke: rgba(0,0,0,0.1); stroke-width: 1" x1="574.324998046076" x2="574.457816352477" y1="62.5" y2="25" />
	<line class="edge" style="stroke: rgba(0,0,0,0.1); stroke-width: 1" x1="574.457816352477" x2="585.849316272136" y1="25" y2="50" />
	<line class="edge" style="stroke: rgba(0,0,0,0.1); stroke-width: 1" x1="574.457816352477" x2="581.653888891855" y1="25" y2="0" />
	<line class="edge" style="stroke: rgba(0,0,0,0.1); stroke-width: 1" x1="574.60228538751" x2="574.74558934968" y1="62.5" y2="25" />
	<line class="edge" style="stroke: rgba(0,0,0,0.1); stroke-width: 1" x1="574.74558934968" x2="586.308354980225" y1="25" y2="50" />
	<line class="edge" style="stroke: rgba(0,0,0,0.1); stroke-width: 1" x1="574.74558934968" x2="578.08468817553" y1="25" y2="0" />
	<line class="edge" style="stroke: rgba(0,0,0,0.1); stroke-width: 1" x1="574.60228538751" x2="583.2168341378" y1="62.5" y2="100" />
	<line class="edge" style="stroke: rgba(0,0,0,0.1); stroke-width: 1" x1="574.6279169905" x2="577.274962535626" y1="62.5" y2="100" />
	<line class="edge" style="stroke: rgba(0,0,0,0.1); stroke-width: 1" x1="574.6279169905" x2="579.877735311951" y1="62.5" y2="25" />
	<line class="edge" style="stroke: rgba(0,0,0,0.1); stroke-width: 1" x1="579.877735311951" x2="582.524780857076" y1="25" y2="50" />
	<line class="edge" style="stroke: rgba(0,0,0,0.1); stroke-width: 1" x1="579.877735311951" x2="587.809551364422" y1="25" y2="0" />
	<line class="edge" style="stroke: rgba(0,0,0,0.1); stroke-width: 1" x1="574.849863370934" x2="574.982099140904" y1="62.5" y2="25" />
	<line class="edge" style="stroke: rgba(0,0,0,0.1); stroke-width: 1" x1="574.982099140904" x2="583.572181361067" y1="25" y2="50" />
	<line class="edge" style="stroke: rgba(0,0,0,0.1); stroke-width: 1" x1="574.982099140904" x2="580.664742031023" y1="25" y2="0" />
	<line class="edge" style="stroke: rgba(0,0,0,0.1); stroke-width: 1" x1="574.849863370934" x2="583.373536437896" y1="62.5" y2="100" />
	<line class="edge" style="stroke: rgba(0,0,0,0.1); stroke-width: 1" x1="575.236667561507" x2="580.448621014905" y1="62.5" y2="100" />
	<line class="edge" style="stroke: rgba(0,0,0,0.1); stroke-width: 1" x1="575.236667561507" x2="575.379388987246" y1="62.5" y2="25" />
	<line class="edge" style="stroke: rgba(0,0,0,0.1); stroke-width: 1" x1="575.379388987246" x2="580.636197745875" y1="25" y2="50" />
	<line class="edge" style="stroke: rgba(0,0,0,0.1); stroke-width: 1" x1="575.379388987246" x2="586.525058532775" y1="25" y2="0" />
	<line class="edge" style="stroke: rgba(0,0,0,0.1); stroke-width: 1" x1="575.906584457831" x2="578.574601314493" y1="62.5" y2="100" />
	<line class="edge" style="stroke: rgba(0,0,0,0.1); stroke-width: 1" x1="575.906584457831" x2="579.877152775519" y1="62.5" y2="25" />
	<line class="edge" style="stroke: rgba(0,0,0,0.1); stroke-width: 1" x1="579.877152775519" x2="583.883255815534" y1="25" y2="50" />
	<line class="edge" style="stroke: rgba(0,0,0,0.1); stroke-width: 1" x1="579.877152775519" x2="585.150855090664" y1="25" y2="0" />
	<line class="edge" style="stroke: rgba(0,0,0,0.1); stroke-width: 1" x1="576.13785142117" x2="576.291058502677" y1="62.5" y2="25" />
	<line class="edge" style="stroke: rgba(0,0,0,0.1); stroke-width: 1" x1="576.291058502677" x2="582.012731333712" y1="25" y2="50" />
	<line class="edge" style="stroke: rgba(0,0,0,0.1); stroke-width: 1" x1="576.291058502677" x2="584.992987717705" y1="25" y2="0" />
	<line class="edge" style="stroke: rgba(0,0,0,0.1); stroke-width: 1" x1="576.13785142117" x2="580.603575705706" y1="62.5" y2="100" />
	<!-- 
	Generated using the Perl SVG Module V2.59
	by Ronan Oger
	Info: http://www.roitsystems.com/
 -->
</svg>