<?xml version="1.0" encoding="UTF-8" standalone="yes"?>
<!DOCTYPE svg PUBLIC "-//W3C//DTD SVG 1.0//EN" "http://www.w3.org/TR/2001/REC-SVG-20010904/DTD/svg10.dtd">
<svg height="100" width="1200" xmlns="http://www.w3.org/2000/svg" xmlns:svg="http://www.w3.org/2000/svg" xmlns:xlink="http://www.w3.org/1999/xlink">
	<line class="edge" style="stroke: rgba(0,0,0,0.1); stroke-width: 1" x1="228.275037431573" x2="693.916219652927" y1="62.5" y2="25" />
	<line class="edge" style="stroke: rgba(0,0,0,0.1); stroke-width: 1" x1="693.916219652927" x2="694.000422912769" y1="25" y2="50" />
	<line class="edge" style="stroke: rgba(0,0,0,0.1); stroke-width: 1" x1="693.916219652927" x2="696.79847447968" y1="25" y2="0" />
	<line class="edge" style="stroke: rgba(0,0,0,0.1); stroke-width: 1" x1="228.275037431573" x2="316.023368301076" y1="62.5" y2="100" />
	<line class="edge" style="stroke: rgba(0,0,0,0.1); stroke-width: 1" x1="312.321269572754" x2="399.351596969821" y1="62.5" y2="25" />
	<line class="edge" style="stroke: rgba(0,0,0,0.1); stroke-width: 1" x1="399.351596969821" x2="577.325996523771" y1="25" y2="0" />
	<line class="edge" style="stroke: rgba(0,0,0,0.1); stroke-width: 1" x1="399.351596969821" x2="571.567176279714" y1="25" y2="50" />
	<line class="edge" style="stroke: rgba(0,0,0,0.1); stroke-width: 1" x1="312.321269572754" x2="557.93023077193" y1="62.5" y2="100" />
	<line class="edge" style="stroke: rgba(0,0,0,0.1); stroke-width: 1" x1="336.770937737948" x2="452.370634682071" y1="62.5" y2="100" />
	<line class="edge" style="stroke: rgba(0,0,0,0.1); stroke-width: 1" x1="336.770937737948" x2="372.319505855825" y1="62.5" y2="25" />
	<line class="edge" style="stroke: rgba(0,0,0,0.1); stroke-width: 1" x1="372.319505855825" x2="471.174701851239" y1="25" y2="50" />
	<line class="edge" style="stroke: rgba(0,0,0,0.1); stroke-width: 1" x1="372.319505855825" x2="783.276929160215" y1="25" y2="0" />
	<line class="edge" style="stroke: rgba(0,0,0,0.1); stroke-width: 1" x1="372.980615233773" x2="594.973975692946" y1="62.5" y2="25" />
	<line class="edge" style="stroke: rgba(0,0,0,0.1); stroke-width: 1" x1="594.973975692946" x2="641.754575944608" y1="25" y2="0" />
	<line class="edge" style="stroke: rgba(0,0,0,0.1); stroke-width: 1" x1="594.973975692946" x2="616.775223759732" y1="25" y2="50" />
	<line class="edge" style="stroke: rgba(0,0,0,0.1); stroke-width: 1" x1="372.980615233773" x2="448.293603871074" y1="62.5" y2="100" />
	<line class="edge" style="stroke: rgba(0,0,0,0.1); stroke-width: 1" x1="420.156629442125" x2="491.220198162131" y1="62.5" y2="25" />
	<line class="edge" style="stroke: rgba(0,0,0,0.1); stroke-width: 1" x1="491.220198162131" x2="615.436505716434" y1="25" y2="0" />
	<line class="edge" style="stroke: rgba(0,0,0,0.1); stroke-width: 1" x1="491.220198162131" x2="553.527196799517" y1="25" y2="50" />
	<line class="edge" style="stroke: rgba(0,0,0,0.1); stroke-width: 1" x1="420.156629442125" x2="537.859701059463" y1="62.5" y2="100" />
	<line class="edge" style="stroke: rgba(0,0,0,0.1); stroke-width: 1" x1="442.097268040406" x2="548.623494795613" y1="62.5" y2="25" />
	<line class="edge" style="stroke: rgba(0,0,0,0.1); stroke-width: 1" x1="548.623494795613" x2="562.550600185285" y1="25" y2="50" />
	<line class="edge" style="stroke: rgba(0,0,0,0.1); stroke-width: 1" x1="548.623494795613" x2="580.876188019811" y1="25" y2="0" />
	<line class="edge" style="stroke: rgba(0,0,0,0.1); stroke-width: 1" x1="442.097268040406" x2="563.395477488429" y1="62.5" y2="100" />
	<line class="edge" style="stroke: rgba(0,0,0,0.1); stroke-width: 1" x1="462.873853465467" x2="518.750112602895" y1="62.5" y2="100" />
	<line class="edge" style="stroke: rgba(0,0,0,0.1); stroke-width: 1" x1="462.873853465467" x2="533.650107008309" y1="62.5" y2="25" />
	<line class="edge" style="stroke: rgba(0,0,0,0.1); stroke-width: 1" x1="533.650107008309" x2="589.122418074875" y1="25" y2="50" />
	<line class="edge" style="stroke: rgba(0,0,0,0.1); stroke-width: 1" x1="533.650107008309" x2="598.950872897645" y1="25" y2="0" />
	<line class="edge" style="stroke: rgba(0,0,0,0.1); stroke-width: 1" x1="465.4249846623" x2="603.320339354309" y1="62.5" y2="100" />
	<line class="edge" style="stroke: rgba(0,0,0,0.1); stroke-width: 1" x1="465.4249846623" x2="479.721332725199" y1="62.5" y2="25" />
	<line class="edge" style="stroke: rgba(0,0,0,0.1); stroke-width: 1" x1="479.721332725199" x2="526.884261291818" y1="25" y2="50" />
	<line class="edge" style="stroke: rgba(0,0,0,0.1); stroke-width: 1" x1="479.721332725199" x2="576.618802929287" y1="25" y2="0" />
	<line class="edge" style="stroke: rgba(0,0,0,0.1); stroke-width: 1" x1="485.876135866891" x2="502.959725618747" y1="62.5" y2="25" />
	<line class="edge" style="stroke: rgba(0,0,0,0.1); stroke-width: 1" x1="502.959725618747" x2="503.790379398269" y1="25" y2="50" />
	<line class="edge" style="stroke: rgba(0,0,0,0.1); stroke-width: 1" x1="502.959725618747" x2="643.836330861917" y1="25" y2="0" />
	<line class="edge" style="stroke: rgba(0,0,0,0.1); stroke-width: 1" x1="485.876135866891" x2="559.196124374283" y1="62.5" y2="100" />
	<line class="edge" style="stroke: rgba(0,0,0,0.1); stroke-width: 1" x1="493.050481181804" x2="580.135995850524" y1="62.5" y2="100" />
	<line class="edge" style="stroke: rgba(0,0,0,0.1); stroke-width: 1" x1="493.050481181804" x2="493.388432103062" y1="62.5" y2="25" />
	<line class="edge" style="stroke: rgba(0,0,0,0.1); stroke-width: 1" x1="493.388432103062" x2="528.506311925666" y1="25" y2="50" />
	<line class="edge" style="stroke: rgba(0,0,0,0.1); stroke-width: 1" x1="493.388432103062" x2="598.179957917335" y1="25" y2="0" />
	<line class="edge" style="stroke: rgba(0,0,0,0.1); stroke-width: 1" x1="497.375570244768" x2="499.734968343178" y1="62.5" y2="100" />
	<line class="edge" style="stroke: rgba(0,0,0,0.1); stroke-width: 1" x1="497.375570244768" x2="498.994776173891" y1="62.5" y2="25" />
	<line class="edge" style="stroke: rgba(0,0,0,0.1); stroke-width: 1" x1="498.994776173891" x2="702.624429755232" y1="25" y2="0" />
	<line class="edge" style="stroke: rgba(0,0,0,0.1); stroke-width: 1" x1="498.994776173891" x2="504.464005477005" y1="25" y2="50" />
	<line class="edge" style="stroke: rgba(0,0,0,0.1); stroke-width: 1" x1="499.88801345735" x2="567.690981622259" y1="62.5" y2="25" />
	<line class="edge" style="stroke: rgba(0,0,0,0.1); stroke-width: 1" x1="567.690981622259" x2="573.070318256082" y1="25" y2="50" />
	<line class="edge" style="stroke: rgba(0,0,0,0.1); stroke-width: 1" x1="567.690981622259" x2="573.326341681277" y1="25" y2="0" />
	<line class="edge" style="stroke: rgba(0,0,0,0.1); stroke-width: 1" x1="499.88801345735" x2="560.42617469711" y1="62.5" y2="100" />
	<line class="edge" style="stroke: rgba(0,0,0,0.1); stroke-width: 1" x1="507.223938000609" x2="522.79186907531" y1="62.5" y2="100" />
	<line class="edge" style="stroke: rgba(0,0,0,0.1); stroke-width: 1" x1="507.223938000609" x2="552.850157075113" y1="62.5" y2="25" />
	<line class="edge" style="stroke: rgba(0,0,0,0.1); stroke-width: 1" x1="552.850157075113" x2="599.512417610239" y1="25" y2="0" />
	<line class="edge" style="stroke: rgba(0,0,0,0.1); stroke-width: 1" x1="552.850157075113" x2="584.518547948921" y1="25" y2="50" />
	<line class="edge" style="stroke: rgba(0,0,0,0.1); stroke-width: 1" x1="511.32600221318" x2="645.456105731985" y1="62.5" y2="100" />
	<line class="edge" style="stroke: rgba(0,0,0,0.1); stroke-width: 1" x1="511.32600221318" x2="517.959284689515" y1="62.5" y2="25" />
	<line class="edge" style="stroke: rgba(0,0,0,0.1); stroke-width: 1" x1="517.959284689515" x2="530.09877763038" y1="25" y2="50" />
	<line class="edge" style="stroke: rgba(0,0,0,0.1); stroke-width: 1" x1="517.959284689515" x2="531.267951272104" y1="25" y2="0" />
	<line class="edge" style="stroke: rgba(0,0,0,0.1); stroke-width: 1" x1="523.053012969009" x2="569.044492130124" y1="62.5" y2="25" />
	<line class="edge" style="stroke: rgba(0,0,0,0.1); stroke-width: 1" x1="569.044492130124" x2="585.414629937104" y1="25" y2="0" />
	<line class="edge" style="stroke: rgba(0,0,0,0.1); stroke-width: 1" x1="569.044492130124" x2="569.285723090753" y1="25" y2="50" />
	<line class="edge" style="stroke: rgba(0,0,0,0.1); stroke-width: 1" x1="523.053012969009" x2="552.123050547558" y1="62.5" y2="100" />
	<line class="edge" style="stroke: rgba(0,0,0,0.1); stroke-width: 1" x1="523.975835181601" x2="533.060684189416" y1="62.5" y2="100" />
	<line class="edge" style="stroke: rgba(0,0,0,0.1); stroke-width: 1" x1="523.975835181601" x2="547.295017689322" y1="62.5" y2="25" />
	<line class="edge" style="stroke: rgba(0,0,0,0.1); stroke-width: 1" x1="547.295017689322" x2="586.723194110323" y1="25" y2="50" />
	<line class="edge" style="stroke: rgba(0,0,0,0.1); stroke-width: 1" x1="547.295017689322" x2="587.04009421662" y1="25" y2="0" />
	<line class="edge" style="stroke: rgba(0,0,0,0.1); stroke-width: 1" x1="529.606074772115" x2="530.888467661871" y1="62.5" y2="25" />
	<line class="edge" style="stroke: rgba(0,0,0,0.1); stroke-width: 1" x1="530.888467661871" x2="601.302874763771" y1="25" y2="0" />
	<line class="edge" style="stroke: rgba(0,0,0,0.1); stroke-width: 1" x1="530.888467661871" x2="555.082112401869" y1="25" y2="50" />
	<line class="edge" style="stroke: rgba(0,0,0,0.1); stroke-width: 1" x1="529.606074772115" x2="550.437278527884" y1="62.5" y2="100" />
	<line class="edge" style="stroke: rgba(0,0,0,0.1); stroke-width: 1" x1="536.045348386246" x2="571.200209370268" y1="62.5" y2="100" />
	<line class="edge" style="stroke: rgba(0,0,0,0.1); stroke-width: 1" x1="536.045348386246" x2="544.635787712962" y1="62.5" y2="25" />
	<line class="edge" style="stroke: rgba(0,0,0,0.1); stroke-width: 1" x1="544.635787712962" x2="573.201743614349" y1="25" y2="0" />
	<line class="edge" style="stroke: rgba(0,0,0,0.1); stroke-width: 1" x1="544.635787712962" x2="562.420881649853" y1="25" y2="50" />
	<line class="edge" style="stroke: rgba(0,0,0,0.1); stroke-width: 1" x1="538.323387929539" x2="553.094232740465" y1="62.5" y2="100" />
	<line class="edge" style="stroke: rgba(0,0,0,0.1); stroke-width: 1" x1="538.323387929539" x2="538.767161866543" y1="62.5" y2="25" />
	<line class="edge" style="stroke: rgba(0,0,0,0.1); stroke-width: 1" x1="538.767161866543" x2="614.545544196755" y1="25" y2="0" />
	<line class="edge" style="stroke: rgba(0,0,0,0.1); stroke-width: 1" x1="538.767161866543" x2="539.181350874415" y1="25" y2="50" />
	<line class="edge" style="stroke: rgba(0,0,0,0.1); stroke-width: 1" x1="538.931016858668" x2="561.432631228599" y1="62.5" y2="100" />
	<line class="edge" style="stroke: rgba(0,0,0,0.1); stroke-width: 1" x1="538.931016858668" x2="568.874378787606" y1="62.5" y2="25" />
	<line class="edge" style="stroke: rgba(0,0,0,0.1); stroke-width: 1" x1="568.874378787606" x2="576.165925937164" y1="25" y2="0" />
	<line class="edge" style="stroke: rgba(0,0,0,0.1); stroke-width: 1" x1="568.874378787606" x2="569.225415350596" y1="25" y2="50" />
	<line class="edge" style="stroke: rgba(0,0,0,0.1); stroke-width: 1" x1="540.063778279921" x2="549.479750917654" y1="62.5" y2="25" />
	<line class="edge" style="stroke: rgba(0,0,0,0.1); stroke-width: 1" x1="549.479750917654" x2="567.82638956714" y1="25" y2="0" />
	<line class="edge" style="stroke: rgba(0,0,0,0.1); stroke-width: 1" x1="549.479750917654" x2="564.239216909683" y1="25" y2="50" />
	<line class="edge" style="stroke: rgba(0,0,0,0.1); stroke-width: 1" x1="540.063778279921" x2="574.757797098591" y1="62.5" y2="100" />
	<line class="edge" style="stroke: rgba(0,0,0,0.1); stroke-width: 1" x1="540.149119421652" x2="572.884843508052" y1="62.5" y2="100" />
	<line class="edge" style="stroke: rgba(0,0,0,0.1); stroke-width: 1" x1="540.149119421652" x2="561.140764523877" y1="62.5" y2="25" />
	<line class="edge" style="stroke: rgba(0,0,0,0.1); stroke-width: 1" x1="561.140764523877" x2="566.854638433288" y1="25" y2="50" />
	<line class="edge" style="stroke: rgba(0,0,0,0.1); stroke-width: 1" x1="561.140764523877" x2="567.083921634074" y1="25" y2="0" />
	<line class="edge" style="stroke: rgba(0,0,0,0.1); stroke-width: 1" x1="540.76812716968" x2="555.897973716825" y1="62.5" y2="25" />
	<line class="edge" style="stroke: rgba(0,0,0,0.1); stroke-width: 1" x1="555.897973716825" x2="561.835441417573" y1="25" y2="50" />
	<line class="edge" style="stroke: rgba(0,0,0,0.1); stroke-width: 1" x1="555.897973716825" x2="563.503007327011" y1="25" y2="0" />
	<line class="edge" style="stroke: rgba(0,0,0,0.1); stroke-width: 1" x1="540.76812716968" x2="581.48381694894" y1="62.5" y2="100" />
	<line class="edge" style="stroke: rgba(0,0,0,0.1); stroke-width: 1" x1="544.57377314997" x2="561.923058323084" y1="62.5" y2="25" />
	<line class="edge" style="stroke: rgba(0,0,0,0.1); stroke-width: 1" x1="561.923058323084" x2="564.765487283696" y1="25" y2="50" />
	<line class="edge" style="stroke: rgba(0,0,0,0.1); stroke-width: 1" x1="561.923058323084" x2="570.588028913579" y1="25" y2="0" />
	<line class="edge" style="stroke: rgba(0,0,0,0.1); stroke-width: 1" x1="544.57377314997" x2="571.46988737814" y1="62.5" y2="100" />
	<line class="edge" style="stroke: rgba(0,0,0,0.1); stroke-width: 1" x1="545.486923366499" x2="564.202804689211" y1="62.5" y2="25" />
	<line class="edge" style="stroke: rgba(0,0,0,0.1); stroke-width: 1" x1="564.202804689211" x2="578.622043996203" y1="25" y2="0" />
	<line class="edge" style="stroke: rgba(0,0,0,0.1); stroke-width: 1" x1="564.202804689211" x2="574.975132539534" y1="25" y2="50" />
	<line class="edge" style="stroke: rgba(0,0,0,0.1); stroke-width: 1" x1="545.486923366499" x2="553.226227039677" y1="62.5" y2="100" />
	<line class="edge" style="stroke: rgba(0,0,0,0.1); stroke-width: 1" x1="545.608676728703" x2="557.248070579021" y1="62.5" y2="100" />
	<line class="edge" style="stroke: rgba(0,0,0,0.1); stroke-width: 1" x1="545.608676728703" x2="566.751660122265" y1="62.5" y2="25" />
	<line class="edge" style="stroke: rgba(0,0,0,0.1); stroke-width: 1" x1="566.751660122265" x2="579.458956126119" y1="25" y2="0" />
	<line class="edge" style="stroke: rgba(0,0,0,0.1); stroke-width: 1" x1="566.751660122265" x2="570.115238988385" y1="25" y2="50" />
	<line class="edge" style="stroke: rgba(0,0,0,0.1); stroke-width: 1" x1="550.531153783789" x2="567.66196563407" y1="62.5" y2="100" />
	<line class="edge" style="stroke: rgba(0,0,0,0.1); stroke-width: 1" x1="550.531153783789" x2="565.703101960855" y1="62.5" y2="25" />
	<line class="edge" style="stroke: rgba(0,0,0,0.1); stroke-width: 1" x1="565.703101960855" x2="571.018717208852" y1="25" y2="0" />
	<line class="edge" style="stroke: rgba(0,0,0,0.1); stroke-width: 1" x1="565.703101960855" x2="568.141582850603" y1="25" y2="50" />
	<line class="edge" style="stroke: rgba(0,0,0,0.1); stroke-width: 1" x1="550.584634232608" x2="550.815055315283" y1="62.5" y2="25" />
	<line class="edge" style="stroke: rgba(0,0,0,0.1); stroke-width: 1" x1="550.815055315283" x2="560.714058815218" y1="25" y2="50" />
	<line class="edge" style="stroke: rgba(0,0,0,0.1); stroke-width: 1" x1="550.815055315283" x2="570.79341659468" y1="25" y2="0" />
	<line class="edge" style="stroke: rgba(0,0,0,0.1); stroke-width: 1" x1="550.584634232608" x2="575.315359224571" y1="62.5" y2="100" />
	<line class="edge" style="stroke: rgba(0,0,0,0.1); stroke-width: 1" x1="550.870242586937" x2="554.279905669591" y1="62.5" y2="100" />
	<line class="edge" style="stroke: rgba(0,0,0,0.1); stroke-width: 1" x1="550.870242586937" x2="565.595003181328" y1="62.5" y2="25" />
	<line class="edge" style="stroke: rgba(0,0,0,0.1); stroke-width: 1" x1="565.595003181328" x2="584.616974732384" y1="25" y2="0" />
	<line class="edge" style="stroke: rgba(0,0,0,0.1); stroke-width: 1" x1="565.595003181328" x2="567.925954232494" y1="25" y2="50" />
	<line class="edge" style="stroke: rgba(0,0,0,0.1); stroke-width: 1" x1="555.333584299506" x2="555.581073610528" y1="62.5" y2="25" />
	<line class="edge" style="stroke: rgba(0,0,0,0.1); stroke-width: 1" x1="555.581073610528" x2="580.931375291464" y1="25" y2="0" />
	<line class="edge" style="stroke: rgba(0,0,0,0.1); stroke-width: 1" x1="555.581073610528" x2="560.562151582936" y1="25" y2="50" />
	<line class="edge" style="stroke: rgba(0,0,0,0.1); stroke-width: 1" x1="555.333584299506" x2="565.328738819125" y1="62.5" y2="100" />
	<line class="edge" style="stroke: rgba(0,0,0,0.1); stroke-width: 1" x1="555.817184102652" x2="555.958850397927" y1="62.5" y2="25" />
	<line class="edge" style="stroke: rgba(0,0,0,0.1); stroke-width: 1" x1="555.958850397927" x2="576.343435511966" y1="25" y2="0" />
	<line class="edge" style="stroke: rgba(0,0,0,0.1); stroke-width: 1" x1="555.958850397927" x2="563.971245724646" y1="25" y2="50" />
	<line class="edge" style="stroke: rgba(0,0,0,0.1); stroke-width: 1" x1="555.817184102652" x2="566.509291279747" y1="62.5" y2="100" />
	<line class="edge" style="stroke: rgba(0,0,0,0.1); stroke-width: 1" x1="558.050277311299" x2="558.18454737429" y1="62.5" y2="100" />
	<line class="edge" style="stroke: rgba(0,0,0,0.1); stroke-width: 1" x1="558.050277311299" x2="558.18454737429" y1="62.5" y2="25" />
	<line class="edge" style="stroke: rgba(0,0,0,0.1); stroke-width: 1" x1="558.18454737429" x2="566.933152283681" y1="25" y2="50" />
	<line class="edge" style="stroke: rgba(0,0,0,0.1); stroke-width: 1" x1="558.18454737429" x2="581.705703917443" y1="25" y2="0" />
	<line class="edge" style="stroke: rgba(0,0,0,0.1); stroke-width: 1" x1="558.35010918925" x2="580.659421519812" y1="62.5" y2="100" />
	<line class="edge" style="stroke: rgba(0,0,0,0.1); stroke-width: 1" x1="558.35010918925" x2="558.709110925468" y1="62.5" y2="25" />
	<line class="edge" style="stroke: rgba(0,0,0,0.1); stroke-width: 1" x1="558.709110925468" x2="567.094162571082" y1="25" y2="0" />
	<line class="edge" style="stroke: rgba(0,0,0,0.1); stroke-width: 1" x1="558.709110925468" x2="559.068112661686" y1="25" y2="50" />
	<line class="edge" style="stroke: rgba(0,0,0,0.1); stroke-width: 1" x1="561.470750271906" x2="572.712454401754" y1="62.5" y2="100" />
	<line class="edge" style="stroke: rgba(0,0,0,0.1); stroke-width: 1" x1="561.470750271906" x2="561.598193043559" y1="62.5" y2="25" />
	<line class="edge" style="stroke: rgba(0,0,0,0.1); stroke-width: 1" x1="561.598193043559" x2="567.050923059271" y1="25" y2="50" />
	<line class="edge" style="stroke: rgba(0,0,0,0.1); stroke-width: 1" x1="561.598193043559" x2="567.060026114389" y1="25" y2="0" />
	<line class="edge" style="stroke: rgba(0,0,0,0.1); stroke-width: 1" x1="561.923058323084" x2="567.039544240374" y1="62.5" y2="100" />
	<line class="edge" style="stroke: rgba(0,0,0,0.1); stroke-width: 1" x1="561.923058323084" x2="564.573754185272" y1="62.5" y2="25" />
	<line class="edge" style="stroke: rgba(0,0,0,0.1); stroke-width: 1" x1="564.573754185272" x2="569.886524728544" y1="25" y2="50" />
	<line class="edge" style="stroke: rgba(0,0,0,0.1); stroke-width: 1" x1="564.573754185272" x2="569.897334606497" y1="25" y2="0" />
	<line class="edge" style="stroke: rgba(0,0,0,0.1); stroke-width: 1" x1="562.445346110483" x2="562.540359248277" y1="62.5" y2="100" />
	<line class="edge" style="stroke: rgba(0,0,0,0.1); stroke-width: 1" x1="562.445346110483" x2="566.80002010258" y1="62.5" y2="25" />
	<line class="edge" style="stroke: rgba(0,0,0,0.1); stroke-width: 1" x1="566.80002010258" x2="573.216536078916" y1="25" y2="0" />
	<line class="edge" style="stroke: rgba(0,0,0,0.1); stroke-width: 1" x1="566.80002010258" x2="571.066508248221" y1="25" y2="50" />
	<line class="edge" style="stroke: rgba(0,0,0,0.1); stroke-width: 1" x1="563.797718736458" x2="568.767417889969" y1="62.5" y2="100" />
	<line class="edge" style="stroke: rgba(0,0,0,0.1); stroke-width: 1" x1="563.797718736458" x2="563.904679634095" y1="62.5" y2="25" />
	<line class="edge" style="stroke: rgba(0,0,0,0.1); stroke-width: 1" x1="563.904679634095" x2="570.46684449232" y1="25" y2="0" />
	<line class="edge" style="stroke: rgba(0,0,0,0.1); stroke-width: 1" x1="563.904679634095" x2="567.588003311236" y1="25" y2="50" />
	<line class="edge" style="stroke: rgba(0,0,0,0.1); stroke-width: 1" x1="565.086369976607" x2="565.198451342748" y1="62.5" y2="100" />
	<line class="edge" style="stroke: rgba(0,0,0,0.1); stroke-width: 1" x1="565.086369976607" x2="565.206416515976" y1="62.5" y2="25" />
	<line class="edge" style="stroke: rgba(0,0,0,0.1); stroke-width: 1" x1="565.206416515976" x2="565.318497882117" y1="25" y2="50" />
	<line class="edge" style="stroke: rgba(0,0,0,0.1); stroke-width: 1" x1="565.206416515976" x2="576.306454350549" y1="25" y2="0" />
	<!-- 
	Generated using the Perl SVG Module V2.59
	by Ronan Oger
	Info: http://www.roitsystems.com/
 -->
</svg>